<svg width="153" height="72" viewBox="0 0 153 72" fill="none" xmlns="http://www.w3.org/2000/svg">
<rect x="3" y="3" width="146.508" height="65.9517" rx="32.9759" stroke="white" stroke-width="6"/>
<path d="M124.508 35.9688C124.508 39.5009 124.035 42.7491 123.088 45.7131C122.247 48.3702 121.004 50.8523 119.357 53.1594C118.995 53.6653 118.405 53.9517 117.784 53.9517H117.004C115.377 53.9517 114.358 51.9877 115.048 50.5142C115.683 49.16 116.237 47.6828 116.71 46.0824C117.184 44.4725 117.553 42.8059 117.818 41.0824C118.083 39.3589 118.216 37.6544 118.216 35.9688C118.216 33.7244 117.984 31.4612 117.52 29.179C117.065 26.8873 116.44 24.7661 115.645 22.8153C115.466 22.3696 115.282 21.9422 115.093 21.5331C114.393 20.0171 115.44 18 117.11 18H117.784C118.405 18 118.995 18.2864 119.357 18.7923C121.004 21.0994 122.247 23.5815 123.088 26.2386C124.035 29.2027 124.508 32.446 124.508 35.9688Z" fill="white"/>
<path d="M106.332 48C105.395 48 104.59 47.6686 103.918 47.0057C103.255 46.3333 102.923 45.5284 102.923 44.5909C102.923 43.6629 103.255 42.8674 103.918 42.2045C104.59 41.5417 105.395 41.2102 106.332 41.2102C107.241 41.2102 108.037 41.5417 108.719 42.2045C109.401 42.8674 109.741 43.6629 109.741 44.5909C109.741 45.2159 109.58 45.7888 109.259 46.3097C108.946 46.821 108.534 47.233 108.023 47.5455C107.511 47.8485 106.948 48 106.332 48ZM106.332 32.7159C105.395 32.7159 104.59 32.3845 103.918 31.7216C103.255 31.0587 102.923 30.2538 102.923 29.3068C102.923 28.3788 103.255 27.5881 103.918 26.9347C104.59 26.2718 105.395 25.9403 106.332 25.9403C107.241 25.9403 108.037 26.2718 108.719 26.9347C109.401 27.5881 109.741 28.3788 109.741 29.3068C109.741 29.9413 109.58 30.5189 109.259 31.0398C108.946 31.5511 108.534 31.9583 108.023 32.2614C107.511 32.5644 106.948 32.7159 106.332 32.7159Z" fill="white"/>
<path d="M75.919 48.0568C73.6842 48.0568 71.7618 47.5833 70.152 46.6364C68.5516 45.6799 67.3205 44.3542 66.4588 42.6591C65.6065 40.964 65.1804 39.0133 65.1804 36.8068C65.1804 34.572 65.6113 32.6117 66.473 30.9261C67.3442 29.2311 68.58 27.91 70.1804 26.9631C71.7808 26.0066 73.6842 25.5284 75.8906 25.5284C77.794 25.5284 79.4607 25.8741 80.8906 26.5653C82.3205 27.2566 83.4522 28.2273 84.2855 29.4773C84.5691 29.9027 84.8094 30.3534 85.0064 30.8293C85.6588 32.4057 84.2328 33.8807 82.5267 33.8807C81.0482 33.8807 79.9111 32.6721 78.9521 31.5468C78.8649 31.4446 78.7725 31.3466 78.6747 31.2528C77.9929 30.5805 77.098 30.2443 75.9901 30.2443C75.0526 30.2443 74.2334 30.5 73.5327 31.0114C72.8414 31.5133 72.3016 32.2472 71.9133 33.2131C71.5251 34.179 71.331 35.3485 71.331 36.7216C71.331 38.1136 71.5204 39.2973 71.8991 40.2727C72.2874 41.2481 72.8319 41.9915 73.5327 42.5028C74.2334 43.0142 75.0526 43.2699 75.9901 43.2699C76.6813 43.2699 77.3016 43.1278 77.8509 42.8438C78.4096 42.5597 78.8688 42.1477 79.2287 41.608C79.9086 40.5968 80.8554 39.6335 82.0739 39.6335H82.5175C84.2252 39.6335 85.6436 41.1125 84.9976 42.6934C84.8054 43.1636 84.5728 43.6114 84.2997 44.0369C83.4948 45.2964 82.3821 46.2812 80.9616 46.9915C79.5412 47.7017 77.8603 48.0568 75.919 48.0568Z" fill="white"/>
<path d="M56.5882 18.5398C58.2592 18.5398 59.6138 19.8944 59.6138 21.5653V40.2076C59.6138 41.3826 59.9173 42.5376 60.4948 43.5608C61.5215 45.3798 60.2074 47.6307 58.1187 47.6307H57.5079C56.1838 47.6307 55.0073 46.7857 54.5844 45.531L54.2437 44.5204C53.7927 43.1824 53.5626 41.7798 53.5626 40.3679V21.5653C53.5626 19.8944 54.9172 18.5398 56.5882 18.5398Z" fill="white"/>
<path d="M44.6885 25.8125C46.7305 25.8125 48.1613 27.8284 47.4874 29.756L42.1751 44.9508C41.614 46.5558 40.0995 47.6307 38.3992 47.6307H37.259C35.5587 47.6307 34.0442 46.5558 33.4831 44.9508L28.1682 29.7485C27.4956 27.8246 28.9237 25.8125 30.9617 25.8125C32.2784 25.8125 33.4367 26.6824 33.8038 27.9469L37.7155 41.4233H37.9428L41.8403 27.9534C42.2073 26.6853 43.3684 25.8125 44.6885 25.8125Z" fill="white"/>
</svg>
